name analog
datacolumns 19
datarows 70
range 0.5415 0.5760000000000001
endheader
time	ground_force_vx	ground_force_vy	ground_force_vz	ground_force_px	ground_force_py	ground_force_pz	l_ground_force_vx	l_ground_force_vy	l_ground_force_vz	l_ground_force_px	l_ground_force_py	l_ground_force_pz	ground_torque_x	ground_torque_y	ground_torque_z	l_ground_torque_x	l_ground_torque_y	l_ground_torque_z
0.5415	-0.0	-0.0	-0.0	-0.0	-0.0	-0.0	-2.024362087249756	1.075775980949402	-777.476806640625	-0.0	-0.0	-0.0	-0.0	-0.0	-0.0	232093.515625	6595.58837890625	-1932.8927001953125
0.542	-0.0	-0.0	-0.0	-0.0	-0.0	-0.0	-3.0941081047058105	1.7664337158203125	-773.0640869140625	-0.0	-0.0	-0.0	-0.0	-0.0	-0.0	231178.0625	7300.326171875	-2107.898681640625
0.5425	-0.0	-0.0	-0.0	-0.0	-0.0	-0.0	-4.524250030517578	2.4567017555236816	-771.29736328125	-0.0	-0.0	-0.0	-0.0	-0.0	-0.0	230484.5	8375.3408203125	-2318.214111328125
0.543	-0.0	-0.0	-0.0	-0.0	-0.0	-0.0	-5.860445976257324	2.5585739612579346	-769.1592407226562	-0.0	-0.0	-0.0	-0.0	-0.0	-0.0	230462.953125	9453.3955078125	-2701.09521484375
0.5435	-0.0	-0.0	-0.0	-0.0	-0.0	-0.0	-7.717838287353516	3.1739962100982666	-767.9168701171875	-0.0	-0.0	-0.0	-0.0	-0.0	-0.0	230562.015625	10051.8984375	-2972.96240234375
0.544	-0.0	-0.0	-0.0	-0.0	-0.0	-0.0	-8.1670503616333	3.624005556106568	-773.6420288085938	-0.0	-0.0	-0.0	-0.0	-0.0	-0.0	231527.15625	10508.6181640625	-3119.612060546875
0.5445	-0.0	-0.0	-0.0	-0.0	-0.0	-0.0	-8.16425895690918	4.934598922729492	-777.5380859375	-0.0	-0.0	-0.0	-0.0	-0.0	-0.0	232924.5625	11025.818359375	-3060.90771484375
0.545	-0.0	-0.0	-0.0	-0.0	-0.0	-0.0	-7.194285392761231	6.005874633789063	-784.4293823242188	-0.0	-0.0	-0.0	-0.0	-0.0	-0.0	234831.296875	11083.0341796875	-2797.8369140625
0.5455	-0.0	-0.0	-0.0	-0.0	-0.0	-0.0	-5.866638660430908	6.179599285125732	-788.3036499023438	-0.0	-0.0	-0.0	-0.0	-0.0	-0.0	236809.125	11050.6630859375	-2441.91650390625
0.546	-0.0	-0.0	-0.0	-0.0	-0.0	-0.0	-5.0683913230896	6.44157075881958	-792.5274658203125	-0.0	-0.0	-0.0	-0.0	-0.0	-0.0	238443.453125	11324.7451171875	-2286.099609375
0.5465	-0.0	-0.0	-0.0	-0.0	-0.0	-0.0	-5.053508281707764	7.047773838043213	-794.331787109375	-0.0	-0.0	-0.0	-0.0	-0.0	-0.0	239282.640625	11727.341796875	-2229.623046875
0.547	-0.0	-0.0	-0.0	-0.0	-0.0	-0.0	-4.600822925567627	7.068756103515625	-798.4500732421875	-0.0	-0.0	-0.0	-0.0	-0.0	-0.0	240085.59375	12216.7705078125	-2199.65966796875
0.5475	-0.0	-0.0	-0.0	-0.0	-0.0	-0.0	-4.866805553436279	7.787600517272949	-800.8812866210938	-0.0	-0.0	-0.0	-0.0	-0.0	-0.0	241033.25	12549.625	-2286.6416015625
0.548	-0.0	-0.0	-0.0	-0.0	-0.0	-0.0	-4.970913410186768	7.948951721191406	-799.606201171875	-0.0	-0.0	-0.0	-0.0	-0.0	-0.0	241560.796875	13468.083984375	-2492.255615234375
0.5485	-0.0	-0.0	-0.0	-0.0	-0.0	-0.0	-6.004098892211914	7.958322048187256	-800.9661865234375	-0.0	-0.0	-0.0	-0.0	-0.0	-0.0	241691.03125	13838.9501953125	-2583.020263671875
0.549	-0.0	-0.0	-0.0	-0.0	-0.0	-0.0	-6.824380874633789	8.04675579071045	-801.2904663085938	-0.0	-0.0	-0.0	-0.0	-0.0	-0.0	241896.28125	14878.201171875	-2914.131591796875
0.5495	-0.0	-0.0	-0.0	-0.0	-0.0	-0.0	-7.182361602783203	8.308634757995605	-800.2933959960938	-0.0	-0.0	-0.0	-0.0	-0.0	-0.0	242255.859375	15497.8759765625	-3178.124267578125
0.55	-0.0	-0.0	-0.0	-0.0	-0.0	-0.0	-7.10010290145874	8.292560577392578	-800.9921264648438	-0.0	-0.0	-0.0	-0.0	-0.0	-0.0	242330.453125	15980.599609375	-3354.979736328125
0.5505	-0.0	-0.0	-0.0	-0.0	-0.0	-0.0	-8.411137580871582	7.945688724517822	-801.0054321289062	-0.0	-0.0	-0.0	-0.0	-0.0	-0.0	242486.609375	16834.54296875	-3532.888671875
0.551	-0.0	-0.0	-0.0	-0.0	-0.0	-0.0	-8.60494613647461	8.269235610961914	-800.2294311523438	-0.0	-0.0	-0.0	-0.0	-0.0	-0.0	242333.71875	17463.451171875	-3713.1328125
0.5515	-0.0	-0.0	-0.0	-0.0	-0.0	-0.0	-9.21921730041504	8.203904151916504	-800.6046142578125	-0.0	-0.0	-0.0	-0.0	-0.0	-0.0	242528.234375	18069.3984375	-3973.849365234375
0.552	-0.0	-0.0	-0.0	-0.0	-0.0	-0.0	-8.963166236877441	7.959037780761719	-797.9708862304688	-0.0	-0.0	-0.0	-0.0	-0.0	-0.0	242473.859375	18881.75	-3891.471435546875
0.5525	-0.0	-0.0	-0.0	-0.0	-0.0	-0.0	-8.877906799316406	8.288640975952148	-799.2483520507812	-0.0	-0.0	-0.0	-0.0	-0.0	-0.0	242255.921875	19249.009765625	-3865.100830078125
0.553	-0.0	-0.0	-0.0	-0.0	-0.0	-0.0	-8.704011917114258	7.089791297912598	-797.5030517578125	-0.0	-0.0	-0.0	-0.0	-0.0	-0.0	241356.34375	19958.4140625	-3832.205078125
0.5535	-0.0	-0.0	-0.0	-0.0	-0.0	-0.0	-9.662516593933104	6.705519676208496	-797.0994873046875	-0.0	-0.0	-0.0	-0.0	-0.0	-0.0	241681.6875	20770.99609375	-4009.813720703125
0.554	-0.0	-0.0	-0.0	-0.0	-0.0	-0.0	-9.083670616149902	5.663092613220215	-796.5393676757812	-0.0	-0.0	-0.0	-0.0	-0.0	-0.0	241340.140625	21160.974609375	-3919.499267578125
0.5545	-0.0	-0.0	-0.0	-0.0	-0.0	-0.0	-9.300414085388184	5.30991792678833	-795.8145141601562	-0.0	-0.0	-0.0	-0.0	-0.0	-0.0	241617.84375	21451.267578125	-3632.598876953125
0.555	-0.0	-0.0	-0.0	-0.0	-0.0	-0.0	-8.853167533874512	5.306434154510498	-795.7588500976562	-0.0	-0.0	-0.0	-0.0	-0.0	-0.0	241887.296875	21917.927734375	-3508.89892578125
0.5555	-0.0	-0.0	-0.0	-0.0	-0.0	-0.0	-8.59770679473877	5.4723405838012695	-796.3720703125	-0.0	-0.0	-0.0	-0.0	-0.0	-0.0	241303.171875	22232.39453125	-3595.283935546875
0.556	-0.0	-0.0	-0.0	-0.0	-0.0	-0.0	-8.700971603393555	5.203697204589844	-794.2911376953125	-0.0	-0.0	-0.0	-0.0	-0.0	-0.0	241242.5	22761.62109375	-3743.758544921875
0.5565	-0.0	-0.0	-0.0	-0.0	-0.0	-0.0	-9.399658203125	4.938676834106445	-794.58203125	-0.0	-0.0	-0.0	-0.0	-0.0	-0.0	240721.015625	23290.322265625	-4006.379150390625
0.557	-0.0	-0.0	-0.0	-0.0	-0.0	-0.0	-9.84689712524414	4.611258506774902	-791.8758544921875	-0.0	-0.0	-0.0	-0.0	-0.0	-0.0	240159.578125	23623.6015625	-4045.1201171875
0.5575	-0.0	-0.0	-0.0	-0.0	-0.0	-0.0	-10.881346702575684	4.066541194915772	-790.1744995117188	-0.0	-0.0	-0.0	-0.0	-0.0	-0.0	240306.65625	24077.19140625	-4395.72607421875
0.558	-0.0	-0.0	-0.0	-0.0	-0.0	-0.0	-11.003925323486328	3.893697261810303	-791.5267333984375	-0.0	-0.0	-0.0	-0.0	-0.0	-0.0	240770.84375	24318.259765625	-4573.83251953125
0.5585	-0.0	-0.0	-0.0	-0.0	-0.0	-0.0	-11.351155281066896	3.970667362213135	-793.666748046875	-0.0	-0.0	-0.0	-0.0	-0.0	-0.0	241364.96875	24299.626953125	-4515.99853515625
0.559	-0.0	-0.0	-0.0	-0.0	-0.0	-0.0	-10.21332836151123	4.320071220397949	-796.4603881835938	-0.0	-0.0	-0.0	-0.0	-0.0	-0.0	242208.65625	24135.654296875	-4490.603515625
0.5595	-0.0	-0.0	-0.0	-0.0	-0.0	-0.0	-9.86249828338623	4.308347225189209	-797.9188842773438	-0.0	-0.0	-0.0	-0.0	-0.0	-0.0	243137.4375	23986.095703125	-4392.28466796875
0.56	-0.0	-0.0	-0.0	-0.0	-0.0	-0.0	-9.407267570495604	4.934291839599609	-802.7150268554688	-0.0	-0.0	-0.0	-0.0	-0.0	-0.0	244541.046875	24515.52734375	-4310.65966796875
0.5605	-0.0	-0.0	-0.0	-0.0	-0.0	-0.0	-9.052462577819824	4.773315906524658	-805.4927978515625	-0.0	-0.0	-0.0	-0.0	-0.0	-0.0	244899.5	24422.033203125	-4391.52880859375
0.561	-0.0	-0.0	-0.0	-0.0	-0.0	-0.0	-9.750186920166016	5.203015327453613	-805.19091796875	-0.0	-0.0	-0.0	-0.0	-0.0	-0.0	245658.78125	24891.13671875	-4305.56103515625
0.5615	-0.0	-0.0	-0.0	-0.0	-0.0	-0.0	-10.032373428344728	5.379603385925293	-806.4927368164062	-0.0	-0.0	-0.0	-0.0	-0.0	-0.0	245799.890625	25134.81640625	-4627.9716796875
0.562	-0.0	-0.0	-0.0	-0.0	-0.0	-0.0	-10.81458568572998	5.479991436004639	-805.8419189453125	-0.0	-0.0	-0.0	-0.0	-0.0	-0.0	245913.859375	25868.541015625	-4863.04638671875
0.5625	-0.0	-0.0	-0.0	-0.0	-0.0	-0.0	-11.44369125366211	5.198726177215576	-806.5241088867188	-0.0	-0.0	-0.0	-0.0	-0.0	-0.0	245851.609375	26148.708984375	-4897.26904296875
0.5630000000000001	-0.0	-0.0	-0.0	-0.0	-0.0	-0.0	-11.988346099853516	4.272337436676025	-805.509033203125	-0.0	-0.0	-0.0	-0.0	-0.0	-0.0	245338.578125	26575.53125	-4872.34375
0.5635	-0.0	-0.0	-0.0	-0.0	-0.0	-0.0	-12.483214378356934	4.672750473022461	-804.4781494140625	-0.0	-0.0	-0.0	-0.0	-0.0	-0.0	245555.078125	26799.576171875	-4875.38037109375
0.5640000000000001	-0.0	-0.0	-0.0	-0.0	-0.0	-0.0	-13.463013648986816	4.331949234008789	-804.7778930664062	-0.0	-0.0	-0.0	-0.0	-0.0	-0.0	245495.5	27814.921875	-5079.619140625
0.5645	-0.0	-0.0	-0.0	-0.0	-0.0	-0.0	-14.349982261657717	4.67262077331543	-803.1320190429688	-0.0	-0.0	-0.0	-0.0	-0.0	-0.0	244906.34375	28369.16796875	-5457.2939453125
0.5650000000000001	-0.0	-0.0	-0.0	-0.0	-0.0	-0.0	-15.786249160766602	4.500154495239258	-803.0487060546875	-0.0	-0.0	-0.0	-0.0	-0.0	-0.0	244532.4375	28705.23828125	-5586.923828125
0.5655	-0.0	-0.0	-0.0	-0.0	-0.0	-0.0	-17.002315521240234	4.579860687255859	-801.26904296875	-0.0	-0.0	-0.0	-0.0	-0.0	-0.0	243860.296875	29612.318359375	-5943.736328125
0.5660000000000001	-0.0	-0.0	-0.0	-0.0	-0.0	-0.0	-17.817859649658203	4.588410377502441	-799.22509765625	-0.0	-0.0	-0.0	-0.0	-0.0	-0.0	243465.546875	30442.021484375	-6235.1552734375
0.5665	-0.0	-0.0	-0.0	-0.0	-0.0	-0.0	-18.27879524230957	4.09327507019043	-797.8114013671875	-0.0	-0.0	-0.0	-0.0	-0.0	-0.0	243211.65625	30648.7421875	-6217.59375
0.5670000000000001	-0.0	-0.0	-0.0	-0.0	-0.0	-0.0	-18.34990119934082	4.495623588562012	-798.1953735351562	-0.0	-0.0	-0.0	-0.0	-0.0	-0.0	243014.546875	30830.8671875	-6325.92431640625
0.5675	-0.0	-0.0	-0.0	-0.0	-0.0	-0.0	-17.773292541503906	4.495548725128174	-799.9063720703125	-0.0	-0.0	-0.0	-0.0	-0.0	-0.0	243728.859375	31049.34765625	-6126.7529296875
0.5680000000000001	-0.0	-0.0	-0.0	-0.0	-0.0	-0.0	-17.30754852294922	4.517764568328857	-799.5748291015625	-0.0	-0.0	-0.0	-0.0	-0.0	-0.0	244443.625	31461.7421875	-5709.64794921875
0.5685	-0.0	-0.0	-0.0	-0.0	-0.0	-0.0	-15.82209014892578	4.443025588989258	-802.4036865234375	-0.0	-0.0	-0.0	-0.0	-0.0	-0.0	245558.578125	31314.767578125	-5377.80712890625
0.5690000000000001	-0.0	-0.0	-0.0	-0.0	-0.0	-0.0	-14.2960786819458	5.104547500610352	-805.528564453125	-0.0	-0.0	-0.0	-0.0	-0.0	-0.0	246316.25	31295.453125	-4901.91650390625
0.5695	-0.0	-0.0	-0.0	-0.0	-0.0	-0.0	-12.52194595336914	4.844027042388916	-808.2860107421875	-0.0	-0.0	-0.0	-0.0	-0.0	-0.0	247055.296875	31161.583984375	-4166.76025390625
0.5700000000000001	-0.0	-0.0	-0.0	-0.0	-0.0	-0.0	-11.107298851013184	4.694826602935791	-810.03173828125	-0.0	-0.0	-0.0	-0.0	-0.0	-0.0	247669.015625	30952.44140625	-3697.387451171875
0.5705	-0.0	-0.0	-0.0	-0.0	-0.0	-0.0	-10.986186981201172	4.76474142074585	-811.7591552734375	-0.0	-0.0	-0.0	-0.0	-0.0	-0.0	248316.0625	31238.2890625	-3338.305419921875
0.5710000000000001	-0.0	-0.0	-0.0	-0.0	-0.0	-0.0	-10.551905632019045	4.5927276611328125	-812.475830078125	-0.0	-0.0	-0.0	-0.0	-0.0	-0.0	248225.234375	31262.44921875	-3477.030517578125
0.5715	-0.0	-0.0	-0.0	-0.0	-0.0	-0.0	-10.635863304138184	4.922540664672852	-814.1473388671875	-0.0	-0.0	-0.0	-0.0	-0.0	-0.0	248850.875	31157.296875	-3361.504150390625
0.5720000000000001	-0.0	-0.0	-0.0	-0.0	-0.0	-0.0	-9.84689712524414	5.619463443756104	-814.2776489257812	-0.0	-0.0	-0.0	-0.0	-0.0	-0.0	249079.9375	31262.32421875	-3207.70263671875
0.5725	-0.0	-0.0	-0.0	-0.0	-0.0	-0.0	-9.225921630859377	5.490223407745361	-813.673828125	-0.0	-0.0	-0.0	-0.0	-0.0	-0.0	249354.25	31186.50390625	-2977.96533203125
0.5730000000000001	-0.0	-0.0	-0.0	-0.0	-0.0	-0.0	-8.940516471862793	5.676572799682617	-813.8914184570312	-0.0	-0.0	-0.0	-0.0	-0.0	-0.0	249285.234375	31584.416015625	-2910.38134765625
0.5735	-0.0	-0.0	-0.0	-0.0	-0.0	-0.0	-8.082392692565918	6.172849178314209	-813.8151245117188	-0.0	-0.0	-0.0	-0.0	-0.0	-0.0	249180.90625	31631.796875	-2744.637451171875
0.5740000000000001	-0.0	-0.0	-0.0	-0.0	-0.0	-0.0	-7.914783000946045	6.08933687210083	-813.3888549804688	-0.0	-0.0	-0.0	-0.0	-0.0	-0.0	248994.390625	31589.154296875	-2729.90966796875
0.5745	-0.0	-0.0	-0.0	-0.0	-0.0	-0.0	-7.83605432510376	5.137345790863037	-810.768798828125	-0.0	-0.0	-0.0	-0.0	-0.0	-0.0	248058.5625	31844.876953125	-2527.355712890625
0.5750000000000001	-0.0	-0.0	-0.0	-0.0	-0.0	-0.0	-9.018769264221191	4.43088436126709	-806.1910400390625	-0.0	-0.0	-0.0	-0.0	-0.0	-0.0	247038.125	32172.67578125	-2759.07373046875
0.5755	-0.0	-0.0	-0.0	-0.0	-0.0	-0.0	-8.886055946350098	3.7928619384765625	-804.1551513671875	-0.0	-0.0	-0.0	-0.0	-0.0	-0.0	246092.890625	32576.931640625	-2792.106689453125
0.5760000000000001	-0.0	-0.0	-0.0	-0.0	-0.0	-0.0	-9.309612274169922	3.0279288291931152	-802.6798095703125	-0.0	-0.0	-0.0	-0.0	-0.0	-0.0	245726.890625	32449.935546875	-2731.5859375
